<svg width="24" height="16" viewBox="0 0 24 16" fill="none" xmlns="http://www.w3.org/2000/svg">
<g clip-path="url(#clip0)">
<path d="M21.9972 15.7499L21.9994 15.7499C22.9545 15.7581 23.7381 14.9773 23.75 14.0042L23.75 2.0063C23.7462 1.53569 23.5589 1.08617 23.2297 0.756802C22.9014 0.428269 22.4589 0.246149 21.9972 0.250071L2.00064 0.250062C1.54109 0.246149 1.09858 0.428269 0.770279 0.756802C0.441145 1.08617 0.253838 1.53569 0.250008 2.00426L0.25 13.9937C0.253838 14.4643 0.441145 14.9138 0.770279 15.2432C1.09858 15.5717 1.54109 15.7538 2.00277 15.7499H21.9972ZM21.9962 16.2499C21.9958 16.2499 21.9955 16.2499 21.9951 16.2499L21.9972 16.2499H21.9962Z" fill="white" stroke="black" stroke-opacity="0.2" stroke-width="0.5"/>
<path fill-rule="evenodd" clip-rule="evenodd" d="M4.67827 5.75208C4.922 5.67267 5.17679 5.63244 5.43313 5.63289C6.5853 5.63289 7.54704 6.4343 7.76726 7.50019L9.39986 7.17384C9.02527 5.36245 7.39209 4 5.43342 4C4.98447 4 4.55369 4.07151 4.14986 4.20376L4.67827 5.75208Z" fill="#FFCA05"/>
<path fill-rule="evenodd" clip-rule="evenodd" d="M2.7826 11.0001L3.90014 9.76478C3.40124 9.33257 3.08653 8.70201 3.08653 7.99964C3.08653 7.29728 3.40068 6.66699 3.89929 6.23536L2.78203 5.00005C1.93465 5.73391 1.4 6.80576 1.4 7.99964C1.4 9.1938 1.93465 10.2659 2.7826 11.0001Z" fill="#00A4DF"/>
<path fill-rule="evenodd" clip-rule="evenodd" d="M7.76754 8.49995C7.54647 9.56556 6.58586 10.3664 5.43484 10.3664C5.17805 10.3669 4.92283 10.3264 4.67884 10.2464L4.14986 11.7964C4.5534 11.9286 4.98532 11.9999 5.43455 11.9999C7.39096 11.9999 9.02385 10.6385 9.39986 8.82829L7.76754 8.49995V8.49995Z" fill="#EE4123"/>
<path fill-rule="evenodd" clip-rule="evenodd" d="M14.0216 9.31384L14.0204 9.31498L13.9742 9.28376C13.8408 9.50057 13.6336 9.67652 13.3711 9.7906C12.8725 10.0083 12.4105 9.95236 12.0788 9.66006L12.0484 9.7066C12.0479 9.70603 12.0479 9.70575 12.0473 9.70575L11.4814 10.556C11.6222 10.6542 11.7729 10.7371 11.9312 10.8034C12.5564 11.0645 13.1958 11.0523 13.8258 10.777C14.2818 10.5787 14.6391 10.2762 14.8837 9.89276L14.0216 9.31384V9.31384ZM12.255 7.21583C11.7286 7.44286 11.457 7.93919 11.5129 8.52095L13.7435 7.55665C13.3598 7.10374 12.8609 6.9539 12.255 7.21583ZM10.7742 9.80621C10.711 9.70082 10.6545 9.59154 10.6051 9.47901C10.3477 8.8788 10.3355 8.25788 10.5526 7.66165C10.7915 7.00782 11.2479 6.50722 11.8379 6.25238C12.5794 5.93171 13.3992 5.99499 14.1098 6.41868C14.5613 6.67863 14.8814 7.08046 15.1244 7.64832C15.1556 7.72097 15.1825 7.79872 15.2092 7.86484L10.7742 9.80592V9.80621ZM16.7592 5.00005V9.7276L17.4911 10.0256L17.0754 11.0001L16.2677 10.6624C16.0864 10.5832 15.9629 10.4626 15.8696 10.3264C15.7802 10.1873 15.7135 9.9972 15.7135 9.74037V5.00005H16.7592V5.00005ZM18.6549 8.52322C18.6545 8.71387 18.6948 8.9024 18.7731 9.07623C18.8514 9.25006 18.9659 9.40517 19.109 9.53122L18.3592 10.3729C18.098 10.1406 17.8891 9.85553 17.7463 9.53646C17.6036 9.21739 17.5302 8.87164 17.5311 8.52209C17.5308 8.17272 17.6047 7.82727 17.7479 7.50859C17.8911 7.18991 18.1003 6.90528 18.3618 6.67352L19.1124 7.51437C18.9686 7.64018 18.8534 7.79529 18.7745 7.96929C18.6956 8.1433 18.6548 8.33217 18.6549 8.52322V8.52322ZM19.9887 9.86495C20.6334 9.86552 21.1715 9.40664 21.2969 8.79622L22.3989 9.02211C22.169 10.1485 21.1763 10.9955 19.9876 10.9944C19.7222 10.9943 19.4586 10.9511 19.2071 10.8664L19.5659 9.79571C19.6987 9.83998 19.8411 9.86467 19.9887 9.86495V9.86495ZM19.9921 6.0543C21.1817 6.05515 22.1733 6.90565 22.4 8.03341L21.2978 8.2576C21.2373 7.95527 21.0742 7.68315 20.836 7.48738C20.5978 7.29161 20.2993 7.18424 19.991 7.18348C19.8471 7.18351 19.7043 7.2067 19.5678 7.25215L19.2125 6.1803C19.4639 6.09636 19.7271 6.05381 19.9921 6.0543V6.0543Z" fill="black"/>
</g>
<defs>
<clipPath id="clip0">
<rect width="24" height="16" fill="white"/>
</clipPath>
</defs>
</svg>
