<svg
  height="16"
  viewBox="0 0 24 16"
  width="24"
  xmlns="http://www.w3.org/2000/svg"
>
  <g fill="none">
    <path
      d="m4.54588254.00006676h5.79377466c.8087588 0 1.3117793.72566459 1.1231113 1.61890981l-2.69741608 12.74856503c-.19036262.8901361-1.00010994 1.6164225-1.80943362 1.6164225h-5.79320976c-.80762905 0-1.31177937-.7262864-1.12311135-1.6164225l2.69854581-12.74856503c.18866803-.89324522.9979917-1.61890981 1.80773904-1.61890981"
      fill="#dd2423"
    />
    <path
      d="m9.85756516.00006676h6.66269264c.8086174 0 .4439911.72566459.2537697 1.61890981l-2.6969924 12.74856503c-.1892329.8901361-.1302036 1.6164225-.9405158 1.6164225h-6.66269248c-.81031221 0-1.31177939-.7262864-1.12141672-1.6164225l2.69685116-12.74856503c.19149238-.89324522.99912144-1.61890981 1.8083039-1.61890981"
      fill="#16315e"
    />
    <path
      d="m16.2559813.00006676h5.7937745c.8098886 0 1.3129092.72566459 1.1226878 1.61890981l-2.6969924 12.74856503c-.1903626.8901361-1.0006749 1.6164225-1.8104222 1.6164225h-5.7910915c-.8103122 0-1.3129091-.7262864-1.1231113-1.6164225l2.697416-12.74856503c.1886681-.89324522.9974268-1.61890981 1.8077391-1.61890981"
      fill="#036862"
    />
    <path
      d="m6.05901135 4.08561434c-.59580116.00668457-.77175951 0-.8279645-.01461278-.02160646.11301588-.42365577 2.15460824-.42478553 2.15631824-.08656699.4130443-.14955043.7074763-.36349659.89759795-.12144798.1105286-.26323144.1638497-.42760986.1638497-.26421996 0-.41814822-.1444178-.44399122-.41832975l-.00494264-.09405035s.08049458-.55326485.08049458-.55637395c0 0 .42196112-1.86048711.49751306-2.10641713.00395412-.01399096.00508387-.02129736.00607239-.02798193-.82132725.00792821-.9669236 0-.97695012-.01461278-.00550753.02005371-.025843.13540142-.025843.13540142l-.43085788 2.09693437-.03699927.1778407-.07159782.5817131c0 .1725552.03078565.31339755.09207452.4324762.19629382.37760055.75622549.4341862 1.07297875.4341862.40812169 0 .79096525-.09544945 1.04967767-.26971465.44907509-.2921002.56656897-.74867195.67135315-1.15440985l.04857917-.20815445s.43467082-1.93230737.5085281-2.18367833c.00282441-.01399096.00395413-.02129736.00776704-.02798193zm1.47893982 1.55881086c-.10478422 0-.29627659.0279819-.46828081.12078865-.0624186.0352883-.12144796.07601755-.18372539.11659135l.056205-.22338905-.03078563-.03762015c-.36476761.08130305-.44639193.0921849-.78333945.14441785l-.02824374.0206755c-.03911752.3570805-.07385733.6255515-.21888878 1.32743145-.05521646.25867735-.11255121.519842-.17002718.7778975l.01553403.03280105c.34527946-.0200537.45006363-.0200537.75015309-.0146128l.02428961-.0290701c.03812903-.21499445.04307165-.2653619.12752039-.70079175.03968242-.20644445.1224365-.66006255.16324868-.8215804.07498704-.038242.14898558-.07586215.21959486-.07586215.16819135 0 .14771465.1615179.14121858.22587635-.00720213.1080413-.06849101.4609245-.13133325.76390655l-.04194194.19556255c-.02923223.14441785-.06128888.2847938-.09052111.427968l.01270966.02860375c.34033679-.0200537.44413246-.0200537.73476028-.0146128l.0341749-.0290701c.0525333-.3357831.06792611-.42563615.16113038-.9145426l.04688457-.22463265c.09108601-.43962715.13684082-.6625498.06792616-.8441214-.07286879-.2034908-.24769738-.2526146-.40826291-.2526146zm1.65214439.4602871c-.18090101.038242-.29627659.0637366-.41094606.08021485-.11368097.02005375-.22453757.038242-.39936616.06498025l-.01383941.0138355-.01270966.01103735c-.01821719.14332965-.0309269.26722735-.05507525.41288885-.02047669.150636-.05196844.3217921-.10323077.56772215-.03968243.18825615-.06015913.25385825-.08275412.32008215-.0220301.06622385-.04631967.1305823-.09094476.31572935l.01045019.0171001.00875554.01570095c.1633899-.00855005.27029237-.0146128.38016043-.01570095.10972684-.00435275.22340776 0 .39936611.00108815l.01539286-.0138355.01652257-.0152346c.02541932-.1669588.02923224-.21188535.04476626-.29334385.01539282-.0873658.04194194-.20830985.10704369-.53134565.03078568-.1517242.06510179-.30298205.09701718-.4578154.03318641-.1542115.06792612-.30609115.10097127-.45781535l-.00494263-.0183437zm.00385525-.620608c-.1643784-.10679765-.45288796-.07290845-.64706354.0746185-.19361063.14457325-.21564072.34977405-.05182718.4579708.16155403.10384405.45119334.0729085.64367421-.0758621.19318708-.14768235.21733543-.3510177.05521651-.4567272zm.99410809 2.473369c.3325698 0 .6734715-.1008904.9300657-.400297.1974235-.2428209.2879446-.60409865.3192952-.7528692.1021011-.4931037.0225949-.7233328-.0772466-.8635533-.1516687-.21375085-.4197016-.28230655-.697761-.28230655-.1672028 0-.5654392.01818825-.87654364.33391765-.22340786.22774175-.32663863.5367866-.38891601.83308405-.06284224.3018939-.13514621.84536505.31887154 1.0476122.14008884.0662239.34203141.08441215.47223481.08441215zm-.0259841-1.10948335c.0766817-.3734032.1672028-.6868008.3982364-.6868008.1810422 0 .1941755.23318275.1136809.6078296-.0144042.0831685-.0804945.3923688-.1698859.5240393-.0624186.09715945-.1362759.15607695-.2179003.15607695-.0242896 0-.1687562 0-.1710157-.23613635-.0011297-.11659135.0204767-.23567.0468846-.3650087zm2.1066988 1.06146325.0259841-.0290701c.0368581-.21499445.0429305-.2655174.1245549-.70079175.0408121-.20644445.1252608-.66006255.1649433-.82158045.0751282-.0383974.1478558-.07601755.2207245-.07601755.1670616 0 .1467262.1615179.140089.2258763-.0060725.1081968-.0673613.4609245-.1313334.76390655l-.0396824.1955626c-.030362.14457325-.0634071.2847938-.0926394.42812345l.0127097.02860375c.3414665-.02005375.441308-.02005375.7336305-.0146128l.0353047-.0290701c.0512623-.33593855.0651017-.42579165.1611304-.9145426l.0457548-.2247881c.0915096-.43962715.1378292-.66239435.0700444-.84396595-.0749871-.2034908-.2509454-.2526146-.4092515-.2526146-.1049254 0-.2974063.02782645-.468422.12078865-.0611476.0352883-.1224365.0758621-.1825956.11659135l.0523921-.22338905-.0281025-.0377756c-.3646263.0814585-.4479453.09234035-.7844692.1445733l-.025843.0206755c-.0408122.35708045-.0739986.62539605-.21903 1.32743145-.0552164.25867735-.1125512.51984195-.1698859.7778975l.0153928.03280105c.3458442-.02005375.4490751-.02005375.7485997-.0146128zm2.5088186.01453505c.0214652-.1153477.1489856-.7990394.1501153-.7990394 0 0 .1085971-.50165375.1152345-.519842 0 0 .0341748-.0522329.0683497-.07290845h.0502738c.4743532 0 1.0099953 0 1.4298381-.3399804.2856852-.2331827.4809905-.57751585.5681223-.99600105.022595-.1026004.0392588-.22463269.0392588-.34666496 0-.16027425-.0292322-.3188385-.1136809-.44273624-.2140874-.32972035-.6404262-.3357831-1.132573-.33827039-.0015534 0-.2426136.00248729-.2426136.00248729-.629976.00855003-.8826161.00606275-.9864117-.00792821-.0087556.05052291-.0252782.14037599-.0252782.14037599s-.2256673 1.15130077-.2256673 1.15316622c0 0-.5400198 2.4477966-.5654392 2.5631443.5500464-.00730635.7755725-.00730635.8704714.0041973zm.4181482-2.0451678s.2399304-1.14896892.2388007-1.14461618l.0077669-.05891749.0033893-.04492654.0958874.01088185s.4948299.046792.5064099.04803565c.1953052.0831685.2757998.29754113.2195948.57736036-.0512623.2557237-.2019425.4707182-.3955532.5745622-.1594358.0879876-.3547411.095294-.5559775.095294h-.1302035zm1.4938667.99045135c-.0634072.2975411-.136276.8410123.3154822 1.0347094.1440429.0674675.2731167.0875212.4043088.08021485.1385355-.00823915.2669031-.08472305.3858092-.1947853-.0107326.04523745-.0214652.0904749-.0321978.1358678l.0204766.0290701c.324944-.01507915.4257741-.01507915.7778319-.0121255l.0319154-.0267383c.0514036-.332674.0998416-.65570975.2334344-1.2921431.0651017-.30484755.1300622-.6067414.1968587-.9103453l-.0104501-.03342285c-.3634967.0741521-.4606551.09000855-.8103124.1445733l-.026549.0237846c-.0035305.0309356-.0072021.0606275-.0105914.09031945-.0543692-.0966931-.1331691-.17923975-.2547583-.2306954-.1554817-.0673121-.5206729.01943185-.8346018.33407305-.2205834.2246327-.3264973.53243385-.3866564.8276432zm.7634275.01818825c.0778115-.3667187.1672028-.67700715.3988014-.67700715.1464436 0 .2235489.14877055.2078737.40247335-.0124272.06327025-.025843.1299605-.0418008.20535625-.0231597.10897405-.0482967.21701535-.0727275.32521215-.0248545.07399665-.0538043.143796-.0855784.1902771-.0595943.09296215-.2013777.150636-.2830021.150636-.0231599 0-.1660731 0-.1710157-.23193905-.0011298-.11550315.0204767-.23442635.0474494-.36500865zm3.9866711-1.21085565-.0281024-.0352883c-.3596838.08021485-.4247856.09296215-.755237.142086l-.0242897.02673825c-.0011296.00435275-.0021182.01103735-.0038128.0171001l-.0011298-.00606275c-.2460027.6247742-.2388006.4899946-.4390485.98185465-.0011298-.02238555-.0011298-.0363765-.0022595-.06016115l-.0501327-1.0662668-.0314917-.0352883c-.3767711.08021485-.3856679.09296215-.7336305.142086l-.0271139.02673825c-.003813.01274735-.003813.0267383-.0060724.0419729l.0022594.00544095c.0434954.2446864.0330452.19012165.0766818.5762722.0203354.1894998.0474494.3800878.0677848.5672558.0343162.3132421.0535219.4674536.0954638.94547815-.2349878.4268798-.2906279.5883977-.51686.9630446l.0015534.0037309-.1592946.27733195c-.0182171.0292256-.0347397.0492793-.0578996.05782935-.0254193.0138355-.0584644.01632275-.1043605.01632275h-.0882616l-.131192.4803564.4500635.00855005c.26422-.00124365.4302931-.1372669.5196844-.32008215l.283002-.53383295h-.004519l.0297972-.03762015c.1903626-.4511308 1.6384179-3.1855867 1.6384179-3.1855867zm-4.7501128 6.3087581h-.1909276l.7066579-2.57293795h.2344228l.0744221-.265051.0072022.29474295c-.0087556.1821934.121448.3437113.4634794.31697305h.3955532l.1361347-.49543555h-.1488443c-.0855785 0-.1252609-.02378465-.1203182-.0747739l-.0072022-.299873h-.7325008v.00155455c-.2368235.00544095-.9440462.0250283-1.0872418.0670012-.1732752.0491238-.3558709.1936971-.3558709.1936971l.071739-.26536195h-.6851925l-.1427719.52652655-.7161194 2.61226815h-.1389591l-.136276.4918601h1.3647364l-.0457548.1640051h.6724828l.0446251-.1640051h.1886681zm-.5599316-2.0501423c-.1097268.03342285-.313929.1347796-.313929.1347796l.1816071-.65757525h.5443977l-.1313333.47911275s-.1681914.01088185-.2807425.0436829zm.0104502.9394154s-.1710158.0236292-.283567.0516111c-.1108566.0369984-.3187303.1535897-.3187303.1535897l.1875382-.6843135h.5472221zm-.3050322 1.1167897h-.5460922l.158306-.5775158h.5443976zm1.315112-1.5959024h.7871525l-.1131162.4032506h-.7976024l-.1197535.4408708h.6979023l-.5284398.8190931c-.0369994.0601612-.0701858.0814585-.1070437.0984031-.0369994.0206755-.0855785.0449265-.1417835.0449265h-.1936107l-.133028.4828437h.5064098c.2632315 0 .4187131-.131826.5335239-.3048476l.3623669-.5459584.0778115.5543531c.0165225.1038439.0843074.1646269.1302034.1882561.0506975.0279819.1030897.0760176.1770882.0831685.0793648.0037309.1366995.0066846.1748285.0066846h.2488272l.1494092-.5403621h-.0981469c-.0563463 0-.1533633-.0104155-.1698859-.0298474-.0165226-.0236292-.0165226-.0600057-.0254194-.1153477l-.0789412-.5555967h-.3232494l.1417836-.1857688h.796049l.1224365-.4408708h-.7370197l.1148107-.4032506h.7347603l.1362759-.497301h-2.1905826zm-6.6483163 1.7081877.1837253-.6728098h.7550958l.1379705-.5004101h-.7558018l.1153756-.4141325h.7385731l.1368408-.4845537h-1.84798632l-.13401641.4845537h.41984283l-.1119863.4141325h-.42097264l-.13952389.5089601h.41970155l-.24487301.8901361c-.03304514.117835.01553408.1627615.04631971.2174817.03149175.0533211.06340718.0886094.13514621.1086631.07399857.0181883.12469597.0290701.19361067.0290701h.8512656l.1516688-.554353-.3773361.0570521c-.0728688 0-.2746701-.0096382-.25264-.0837903zm.0866093-3.22084395-.1913512.38070965c-.0409534.08316845-.0778114.1347796-.1109978.1585642-.0292322.02005375-.0871318.0284483-.1710157.0284483h-.0998415l-.13345158.48704095h.33158128c.1594357 0 .2818722-.0643584.3403368-.09653765.0628422-.0369983.0793647-.0158564.1279439-.0674675l.1119864-.1067977h1.0354146l.1374057-.50709465h-.7579202l.1323219-.2768656zm1.5286064 3.23062205c-.0176524-.027982-.0049427-.0772612.0220301-.1798616l.283002-1.0311339h1.0067472c.1467262-.0023318.25264-.0041973.3215547-.0096382.0739985-.0085501.1544932-.0376202.2421899-.0898531.0905212-.0547202.1368408-.1123941.1759583-.178618.0436366-.0660684.113681-.2106417.1738401-.4335643l.3557296-1.3048905-1.044735.0066846s-.3216959.0522329-.4633381.10990675c-.1429132.06435845-.3471154.2440646-.3471154.2440646l.0943341-.3577023h-.645369l-.9035164 3.29860265c-.0320566.1280949-.0535218.2210571-.0584645.2768655-.0016946.0601612.0689147.1197005.1146695.164627.0540867.0449266.1340164.0376202.2106981.0449266.0806358.0066846.1953053.0108818.3536113.0108818h.4959597l.1522336-.5658567-.4439912.0461702c-.0474494 0-.0817655-.027982-.0960286-.0516111zm.4876277-1.9074346h1.0574447l-.06722.2319391c-.0094616.0054409-.0320566-.0115037-.1396652.0024873h-.9156612zm.2118279-.77789745h1.0663414l-.0766816.27935285s-.5025969-.0054409-.5830915.01088185c-.3541763.06746755-.5610614.27577745-.5610614.27577745zm.802065 1.78653705c-.0087555.0346665-.0225949.0558084-.0419418.0716648-.0214654.0152346-.0562051.0206755-.1080323.0206755h-.1506803l.0088968-.2824619h-.626728l-.0254193 1.380908c-.0009886.0996467.007767.1573206.0739985.2034908.0662315.0576738.2702923.0649802.5449624.0649802h.392729l.1417834-.5168883-.3418902.0206755-.1136809.0073064c-.0155341-.0073064-.030362-.013991-.0468846-.0321792-.0144043-.015701-.0386939-.0060627-.0347398-.1057095l.0026831-.3539713.3585541-.0163228c.1936107 0 .2763648-.0693331.346974-.1354015.0673612-.0632702.0893913-.1360232.1148107-.2344264l.0601592-.3133975h-.4927118z"
      fill="#fefefe"
    />
  </g>
</svg>
