<svg width="24" height="24" viewBox="0 0 24 24" xmlns="http://www.w3.org/2000/svg" fill="var(--colorIconCardError)" role="presentation"><path opacity=".4" fill-rule="evenodd" clip-rule="evenodd" d="M15.337 4A5.5 5.5 0 1023 11.663V18a2 2 0 01-2 2H3a2 2 0 01-2-2V6a2 2 0 012-2h12.337zm6.707.293c.239.202.46.424.662.663a2.01 2.01 0 00-.662-.663zM3 9a1 1 0 011-1h5a1 1 0 011 1v3a1 1 0 01-1 1H4a1 1 0 01-1-1V9z"></path><path opacity=".6" fill-rule="evenodd" clip-rule="evenodd" d="M4 15a1 1 0 100 2h1.5a1 1 0 100-2H4zm4.8 0a1 1 0 100 2h1.5a1 1 0 100-2H8.8zm3.8 1a1 1 0 011-1h1.5a1 1 0 110 2h-1.5a1 1 0 01-1-1zm5.9-1a1 1 0 100 2H20a1 1 0 100-2h-1.5z"></path><path fill-rule="evenodd" clip-rule="evenodd" d="M18.5 14a5.5 5.5 0 110-11 5.5 5.5 0 010 11zm0-1.719a1.031 1.031 0 100-2.062 1.031 1.031 0 000 2.062zm0-7.906a.687.687 0 00-.688.688V8.5a.687.687 0 101.375 0V5.062a.687.687 0 00-.687-.687z"></path></svg>
