<svg width="32" height="32" viewBox="0 0 32 32" fill="none" xmlns="http://www.w3.org/2000/svg">
<path d="M5.33333 17.3334C6.06971 17.3334 6.66667 16.7365 6.66667 16.0001C6.66667 15.2637 6.06971 14.6667 5.33333 14.6667C4.59695 14.6667 4 15.2637 4 16.0001C4 16.7365 4.59695 17.3334 5.33333 17.3334Z" fill="#030407"/>
<path d="M26.7468 14.6667H10.5868C9.89463 14.6667 9.3335 15.2279 9.3335 15.9201V16.0801C9.3335 16.7723 9.89463 17.3334 10.5868 17.3334H26.7468C27.439 17.3334 28.0002 16.7723 28.0002 16.0801V15.9201C28.0002 15.2279 27.439 14.6667 26.7468 14.6667Z" fill="#030407"/>
<path d="M26.7467 21.3333H5.25333C4.56114 21.3333 4 21.8944 4 22.5866V22.7466C4 23.4388 4.56114 23.9999 5.25333 23.9999H26.7467C27.4389 23.9999 28 23.4388 28 22.7466V22.5866C28 21.8944 27.4389 21.3333 26.7467 21.3333Z" fill="#030407"/>
<path d="M26.7467 8H5.25333C4.56114 8 4 8.56114 4 9.25333V9.41333C4 10.1055 4.56114 10.6667 5.25333 10.6667H26.7467C27.4389 10.6667 28 10.1055 28 9.41333V9.25333C28 8.56114 27.4389 8 26.7467 8Z" fill="#030407"/>
</svg>
