<?xml version="1.0" standalone="no"?>
<!DOCTYPE svg PUBLIC "-//W3C//DTD SVG 20010904//EN"
 "http://www.w3.org/TR/2001/REC-SVG-20010904/DTD/svg10.dtd">
<svg version="1.0" xmlns="http://www.w3.org/2000/svg"
 width="700.000000pt" height="700.000000pt" viewBox="0 0 700.000000 700.000000"
 preserveAspectRatio="xMidYMid meet">
<metadata>
Created by potrace 1.14, written by Peter Selinger 2001-2017
</metadata>
<g transform="translate(0.000000,700.000000) scale(0.100000,-0.100000)"
fill="#000000" stroke="none">
<path d="M4590 5917 c-74 -41 -324 -177 -555 -304 -231 -127 -453 -247 -494
-267 l-73 -37 -39 25 c-35 23 -914 516 -1084 608 -119 64 -97 70 -564 -180
-223 -120 -482 -259 -575 -308 -209 -110 -222 -122 -232 -200 -8 -63 3 -2816
12 -2837 6 -15 179 -114 1164 -662 432 -241 910 -507 1062 -592 218 -122 282
-153 299 -148 13 4 282 152 598 328 317 175 612 339 656 362 293 155 1224 681
1243 701 l22 25 0 1418 c0 780 -3 1432 -6 1449 -8 38 -1 34 -689 402 -414 223
-548 290 -575 290 -24 0 -75 -22 -170 -73z"/>
</g>
</svg>
